<svg width="32" height="32" viewBox="0 0 32 32" fill="none" xmlns="http://www.w3.org/2000/svg">
<path d="M16.001 0C16.7072 3.55489e-05 17.4041 0.0455744 18.0879 0.134766C18.9887 0.252427 19.6695 0.953375 19.8037 1.80762C20.3465 1.1342 21.2865 0.866748 22.126 1.21484C23.4277 1.75467 24.6419 2.46115 25.7422 3.30664C26.4617 3.85961 26.6994 4.80561 26.3887 5.61133C27.1945 5.30026 28.1412 5.53909 28.6943 6.25879C29.5398 7.35905 30.2463 8.57329 30.7861 9.875C31.1341 10.7142 30.8664 11.6534 30.1934 12.1963C31.0477 12.3304 31.7485 13.0122 31.8662 13.9131C31.9554 14.597 32.001 15.2946 32.001 16.001C32.001 16.7072 31.9554 17.4041 31.8662 18.0879C31.7487 18.9888 31.0477 19.6695 30.1934 19.8037C30.8669 20.3464 31.134 21.2865 30.7861 22.126C30.2464 23.4276 29.5397 24.642 28.6943 25.7422C28.1411 26.4621 27.1947 26.7001 26.3887 26.3887C26.7001 27.1946 26.4618 28.141 25.7422 28.6943C24.642 29.5398 23.4276 30.2463 22.126 30.7861C21.2864 31.1343 20.3465 30.8671 19.8037 30.1934C19.6697 31.0477 18.9888 31.7485 18.0879 31.8662C17.4041 31.9554 16.7072 32.0009 16.001 32.001C15.2946 32.001 14.597 31.9554 13.9131 31.8662C13.012 31.7486 12.3303 31.0479 12.1963 30.1934C11.6535 30.8667 10.7143 31.1341 9.875 30.7861C8.57324 30.2463 7.35909 29.5399 6.25879 28.6943C5.53892 28.1411 5.3 27.1946 5.61133 26.3887C4.80549 26.6997 3.8597 26.4619 3.30664 25.7422C2.46113 24.6419 1.75467 23.4277 1.21484 22.126C0.866793 21.2864 1.13396 20.3464 1.80762 19.8037C0.953139 19.6696 0.252319 18.989 0.134766 18.0879C0.0455861 17.4041 1.98245e-05 16.7072 0 16.001C1.57398e-05 15.2946 0.0455552 14.597 0.134766 13.9131C0.252508 13.0122 0.953215 12.3303 1.80762 12.1963C1.13428 11.6535 0.866766 10.7144 1.21484 9.875C1.75466 8.57339 2.46121 7.35898 3.30664 6.25879C3.85967 5.53951 4.80572 5.30058 5.61133 5.61133C5.30064 4.80561 5.53925 3.85958 6.25879 3.30664C7.359 2.46125 8.57338 1.75462 9.875 1.21484C10.7143 0.867051 11.6535 1.13443 12.1963 1.80762C12.3305 0.953274 13.0121 0.252331 13.9131 0.134766C14.597 0.0455749 15.2946 0 16.001 0ZM15.6025 15.7139C11.5375 15.7139 9.28974 15.7783 8.11035 15.834C7.12597 15.8805 6.29829 16.7165 6.4502 17.7793C7.07177 22.1273 10.9362 25.5975 15.6025 25.5977C20.269 25.5977 24.1333 22.1274 24.7549 17.7793C24.9068 16.7164 24.0792 15.8804 23.0947 15.834C21.9152 15.7783 19.6673 15.7139 15.6025 15.7139ZM21.0654 18.2881C21.1864 17.9533 21.5558 17.7794 21.8906 17.9004C22.2254 18.0214 22.3982 18.3908 22.2773 18.7256C21.7028 20.3151 20.5707 21.6598 19.1152 22.5029C18.8073 22.681 18.4128 22.5755 18.2344 22.2676C18.0563 21.9596 18.1618 21.5651 18.4697 21.3867C19.6647 20.6944 20.5949 19.5894 21.0654 18.2881ZM23.8945 8.58887C23.5373 8.59284 23.1704 8.72206 22.8594 8.91211C20.4449 10.3876 17.9924 12.1789 16.9385 12.9658C16.7445 13.1107 16.5749 13.3113 16.4844 13.5391C16.3922 13.7709 16.3809 14.0396 16.5254 14.29C16.67 14.5404 16.9084 14.665 17.1553 14.7012C17.3978 14.7367 17.6564 14.6903 17.8789 14.5947C19.0872 14.0755 21.8646 12.8473 24.3496 11.4941C24.6698 11.3198 24.9654 11.0664 25.1475 10.7588C25.3325 10.4461 25.4016 10.0717 25.249 9.68652C25.2059 9.57764 25.1519 9.46459 25.085 9.34863C25.018 9.23256 24.9468 9.12899 24.874 9.03711C24.6167 8.71244 24.2577 8.58491 23.8945 8.58887ZM19.0732 6.43164C18.7407 6.18472 18.3614 6.15512 18.0117 6.25293C17.6677 6.34922 17.3469 6.56896 17.0957 6.83301C15.1456 8.88302 13.2402 11.2473 12.4258 12.2803C12.2758 12.4705 12.1633 12.7087 12.1348 12.9521C12.1058 13.1999 12.1647 13.4626 12.3691 13.667C12.5736 13.8715 12.8362 13.9303 13.084 13.9014C13.3275 13.8728 13.5657 13.7603 13.7559 13.6104C14.7888 12.796 17.1531 10.8906 19.2031 8.94043C19.4672 8.68917 19.6869 8.36853 19.7832 8.02441C19.881 7.67467 19.8513 7.29541 19.6045 6.96289C19.5345 6.86874 19.4532 6.77257 19.3584 6.67773C19.2635 6.58285 19.1674 6.5016 19.0732 6.43164Z" fill="url(#paint0_linear_3792_111)"/>
<defs>
<linearGradient id="paint0_linear_3792_111" x1="6.53512" y1="4.12916" x2="26.1733" y2="27.6082" gradientUnits="userSpaceOnUse">
<stop stop-color="#F7FF5D"/>
<stop offset="1" stop-color="#FFF200"/>
</linearGradient>
</defs>
</svg>
